<svg id="svg" xmlns="http://www.w3.org/2000/svg" xmlns:xlink="http://www.w3.org/1999/xlink" width="400" height="400" viewBox="0, 0, 400,400">
  <g id="svgg">
    <path id="path0" d="M188.281 14.422 C 182.166 16.162,31.033 79.723,27.136 82.193 C 14.502 90.203,8.217 107.410,12.643 121.875 C 14.749 128.756,115.946 369.326,117.977 372.278 C 126.154 384.162,142.142 390.134,155.859 386.426 C 160.699 385.117,312.450 321.677,316.888 319.106 C 329.247 311.949,336.205 294.690,332.478 280.438 C 331.248 275.733,231.541 36.983,228.344 31.087 C 221.071 17.674,203.107 10.202,188.281 14.422 M246.094 14.837 C 246.094 15.333,265.166 61.315,288.477 117.018 L 330.859 218.297 331.450 190.985 C 331.775 175.963,331.951 137.656,331.841 105.859 L 331.641 48.047 329.819 42.999 C 325.047 29.775,316.564 21.204,303.595 16.501 C 297.280 14.211,246.094 12.730,246.094 14.837 M353.906 139.109 C 353.906 180.906,354.100 214.910,354.337 214.673 C 357.000 212.010,390.859 109.732,391.204 103.307 C 392.161 85.523,382.777 72.967,363.672 66.466 C 359.375 65.004,355.420 63.652,354.883 63.461 C 354.106 63.185,353.906 78.649,353.906 139.109 " stroke="none" fill="#000000" fill-rule="evenodd">
    </path>
  </g>
</svg>
